<svg xmlns="http://www.w3.org/2000/svg" viewBox="0 0 375 375" width="80" height="80" preserveAspectRatio="xMidYMid meet"><defs><g/></defs><g fill="#4d6eff" fill-opacity="1"><g transform="translate(121.288737, 235.982322)"><g><path d="M 2.234375 -46.71875 L 19.890625 -46.71875 C 21.148438 -46.71875 22.128906 -46.707031 22.828125 -46.6875 C 23.535156 -46.664062 24.085938 -46.65625 24.484375 -46.65625 C 24.878906 -46.65625 25.15625 -46.640625 25.3125 -46.609375 C 25.476562 -46.585938 25.679688 -46.554688 25.921875 -46.515625 C 28.671875 -46.085938 30.535156 -44.875 31.515625 -42.875 C 31.890625 -42.070312 32.171875 -40.628906 32.359375 -38.546875 C 32.546875 -36.472656 32.640625 -33.96875 32.640625 -31.03125 L 32.640625 -18.421875 C 32.640625 -16.035156 32.566406 -13.722656 32.421875 -11.484375 C 32.285156 -9.242188 32.101562 -7.445312 31.875 -6.09375 C 31.21875 -2.351562 29.160156 -0.367188 25.703125 -0.140625 C 25.566406 -0.140625 25.125 -0.125 24.375 -0.09375 C 23.625 -0.0703125 22.128906 -0.0390625 19.890625 0 L 2.234375 0 Z M 17.015625 -10.296875 C 18.328125 -10.296875 19.171875 -10.550781 19.546875 -11.0625 C 19.921875 -11.582031 20.109375 -12.679688 20.109375 -14.359375 L 20.109375 -32.4375 C 20.109375 -34.164062 19.921875 -35.285156 19.546875 -35.796875 C 19.171875 -36.304688 18.328125 -36.5625 17.015625 -36.5625 L 14.78125 -36.5625 L 14.78125 -10.296875 Z M 17.015625 -10.296875 "/></g></g></g><g fill="#4d6eff" fill-opacity="1"><g transform="translate(155.749995, 235.982322)"><g><path d="M 2.234375 -34.890625 C 2.234375 -37.691406 2.175781 -39.988281 2.0625 -41.78125 C 1.945312 -43.582031 1.773438 -45.226562 1.546875 -46.71875 L 15.90625 -46.71875 C 15.53125 -44.851562 15.25 -43 15.0625 -41.15625 C 14.875 -39.3125 14.78125 -37.335938 14.78125 -35.234375 L 14.78125 -10.15625 L 23.1875 -10.640625 L 20.9375 0 L 2.234375 0 Z M 2.234375 -34.890625 "/></g></g></g><g fill="#4d6eff" fill-opacity="1"><g transform="translate(178.514045, 235.982322)"><g><path d="M 14.21875 0 C 11.414062 0 9.171875 -0.40625 7.484375 -1.21875 C 5.804688 -2.039062 4.550781 -3.335938 3.71875 -5.109375 C 3.34375 -5.898438 3.035156 -6.703125 2.796875 -7.515625 C 2.566406 -8.335938 2.378906 -9.273438 2.234375 -10.328125 C 2.097656 -11.378906 1.992188 -12.59375 1.921875 -13.96875 C 1.859375 -15.351562 1.828125 -17.023438 1.828125 -18.984375 L 1.828125 -27.734375 C 1.828125 -29.703125 1.859375 -31.375 1.921875 -32.75 C 1.992188 -34.125 2.097656 -35.335938 2.234375 -36.390625 C 2.378906 -37.441406 2.566406 -38.375 2.796875 -39.1875 C 3.035156 -40.007812 3.34375 -40.816406 3.71875 -41.609375 C 4.550781 -43.378906 5.804688 -44.671875 7.484375 -45.484375 C 9.171875 -46.304688 11.414062 -46.71875 14.21875 -46.71875 L 19.828125 -46.71875 C 22.628906 -46.71875 24.867188 -46.304688 26.546875 -45.484375 C 28.222656 -44.671875 29.484375 -43.378906 30.328125 -41.609375 C 30.703125 -40.816406 31.003906 -40.007812 31.234375 -39.1875 C 31.472656 -38.375 31.660156 -37.441406 31.796875 -36.390625 C 31.941406 -35.335938 32.046875 -34.125 32.109375 -32.75 C 32.179688 -31.375 32.21875 -29.703125 32.21875 -27.734375 L 32.21875 -18.984375 C 32.21875 -17.023438 32.179688 -15.351562 32.109375 -13.96875 C 32.046875 -12.59375 31.941406 -11.378906 31.796875 -10.328125 C 31.660156 -9.273438 31.472656 -8.335938 31.234375 -7.515625 C 31.003906 -6.703125 30.703125 -5.898438 30.328125 -5.109375 C 29.484375 -3.335938 28.222656 -2.039062 26.546875 -1.21875 C 24.867188 -0.40625 22.628906 0 19.828125 0 Z M 19.6875 -33.34375 C 19.6875 -34.46875 19.441406 -35.367188 18.953125 -36.046875 C 18.460938 -36.722656 17.816406 -37.0625 17.015625 -37.0625 C 16.222656 -37.0625 15.582031 -36.722656 15.09375 -36.046875 C 14.601562 -35.367188 14.359375 -34.46875 14.359375 -33.34375 L 14.359375 -13.234375 C 14.359375 -12.066406 14.601562 -11.15625 15.09375 -10.5 C 15.582031 -9.851562 16.222656 -9.53125 17.015625 -9.53125 C 17.816406 -9.53125 18.460938 -9.851562 18.953125 -10.5 C 19.441406 -11.15625 19.6875 -12.066406 19.6875 -13.234375 Z M 19.6875 -33.34375 "/></g></g></g><g fill="#4d6eff" fill-opacity="1"><g transform="translate(212.485008, 235.982322)"><g><path d="M 2.234375 -34.890625 C 2.234375 -37.691406 2.175781 -39.988281 2.0625 -41.78125 C 1.945312 -43.582031 1.773438 -45.226562 1.546875 -46.71875 L 15.90625 -46.71875 C 15.53125 -44.851562 15.25 -43 15.0625 -41.15625 C 14.875 -39.3125 14.78125 -37.335938 14.78125 -35.234375 L 14.78125 -10.15625 L 23.1875 -10.640625 L 20.9375 0 L 2.234375 0 Z M 2.234375 -34.890625 "/></g></g></g><g fill="#4d6eff" fill-opacity="1"><g transform="translate(235.249059, 235.982322)"><g><path d="M 2.234375 -37.1875 C 2.234375 -39.25 2.410156 -40.894531 2.765625 -42.125 C 3.117188 -43.363281 3.664062 -44.3125 4.40625 -44.96875 C 5.15625 -45.625 6.3125 -46.078125 7.875 -46.328125 C 9.445312 -46.585938 11.769531 -46.71875 14.84375 -46.71875 L 19.96875 -46.71875 C 23.050781 -46.71875 25.375 -46.585938 26.9375 -46.328125 C 28.5 -46.078125 29.65625 -45.625 30.40625 -44.96875 C 31.144531 -44.3125 31.691406 -43.363281 32.046875 -42.125 C 32.398438 -40.894531 32.578125 -39.25 32.578125 -37.1875 L 32.578125 0 L 20.03125 0 L 20.03125 -9.875 L 14.78125 -9.875 L 14.78125 0 L 2.234375 0 Z M 20.03125 -20.25 L 20.03125 -32.578125 C 20.03125 -35.472656 19.144531 -36.921875 17.375 -36.921875 C 15.644531 -36.921875 14.78125 -35.472656 14.78125 -32.578125 L 14.78125 -20.25 Z M 20.03125 -20.25 "/></g></g></g><g fill="#4d6eff" fill-opacity="1"><g transform="translate(270.130568, 235.982322)"><g><path d="M 2.234375 -46.71875 L 14.78125 -46.71875 L 14.78125 -28.4375 L 20.109375 -28.4375 L 20.109375 -46.71875 L 32.640625 -46.71875 L 32.640625 0 L 20.109375 0 L 20.109375 -18.28125 L 14.78125 -18.28125 L 14.78125 0 L 2.234375 0 Z M 2.234375 -46.71875 "/></g></g></g><path stroke-linecap="butt" transform="matrix(0.75, 0, 0, 0.75, 108.076814, 178.225666)" fill="none" stroke-linejoin="miter" d="M 0.00174773 3.501196 L 280.199683 3.501196 " stroke="#000000" stroke-width="7" stroke-opacity="1" stroke-miterlimit="4"/><path stroke-linecap="butt" transform="matrix(0.000000001309, 0.75, -0.75, 0.000000001309, 110.698459, 178.214314)" fill="none" stroke-linejoin="miter" d="M 0.000706464 3.498987 L 90.761129 3.498987 " stroke="#000000" stroke-width="7" stroke-opacity="1" stroke-miterlimit="4"/><path stroke-linecap="butt" transform="matrix(0.75, 0, 0, 0.75, 105.464741, 243.655165)" fill="none" stroke-linejoin="miter" d="M 0.000137301 3.501447 L 287.198073 3.501447 " stroke="#000000" stroke-width="7" stroke-opacity="1" stroke-miterlimit="4"/><path stroke-linecap="butt" transform="matrix(0, -0.75, 0.75, 0, 315.598959, 246.276809)" fill="none" stroke-linejoin="miter" d="M -0.00071243 3.498263 L 90.75971 3.498263 " stroke="#000000" stroke-width="7" stroke-opacity="1" stroke-miterlimit="4"/><g fill="#000000" fill-opacity="1"><g transform="translate(125.294807, 235.982322)"><g><path d="M 2.234375 -46.71875 L 19.890625 -46.71875 C 21.148438 -46.71875 22.128906 -46.707031 22.828125 -46.6875 C 23.535156 -46.664062 24.085938 -46.65625 24.484375 -46.65625 C 24.878906 -46.65625 25.15625 -46.640625 25.3125 -46.609375 C 25.476562 -46.585938 25.679688 -46.554688 25.921875 -46.515625 C 28.671875 -46.085938 30.535156 -44.875 31.515625 -42.875 C 31.890625 -42.070312 32.171875 -40.628906 32.359375 -38.546875 C 32.546875 -36.472656 32.640625 -33.96875 32.640625 -31.03125 L 32.640625 -18.421875 C 32.640625 -16.035156 32.566406 -13.722656 32.421875 -11.484375 C 32.285156 -9.242188 32.101562 -7.445312 31.875 -6.09375 C 31.21875 -2.351562 29.160156 -0.367188 25.703125 -0.140625 C 25.566406 -0.140625 25.125 -0.125 24.375 -0.09375 C 23.625 -0.0703125 22.128906 -0.0390625 19.890625 0 L 2.234375 0 Z M 17.015625 -10.296875 C 18.328125 -10.296875 19.171875 -10.550781 19.546875 -11.0625 C 19.921875 -11.582031 20.109375 -12.679688 20.109375 -14.359375 L 20.109375 -32.4375 C 20.109375 -34.164062 19.921875 -35.285156 19.546875 -35.796875 C 19.171875 -36.304688 18.328125 -36.5625 17.015625 -36.5625 L 14.78125 -36.5625 L 14.78125 -10.296875 Z M 17.015625 -10.296875 "/></g></g></g><g fill="#000000" fill-opacity="1"><g transform="translate(159.756065, 235.982322)"><g><path d="M 2.234375 -34.890625 C 2.234375 -37.691406 2.175781 -39.988281 2.0625 -41.78125 C 1.945312 -43.582031 1.773438 -45.226562 1.546875 -46.71875 L 15.90625 -46.71875 C 15.53125 -44.851562 15.25 -43 15.0625 -41.15625 C 14.875 -39.3125 14.78125 -37.335938 14.78125 -35.234375 L 14.78125 -10.15625 L 23.1875 -10.640625 L 20.9375 0 L 2.234375 0 Z M 2.234375 -34.890625 "/></g></g></g><g fill="#000000" fill-opacity="1"><g transform="translate(182.520115, 235.982322)"><g><path d="M 14.21875 0 C 11.414062 0 9.171875 -0.40625 7.484375 -1.21875 C 5.804688 -2.039062 4.550781 -3.335938 3.71875 -5.109375 C 3.34375 -5.898438 3.035156 -6.703125 2.796875 -7.515625 C 2.566406 -8.335938 2.378906 -9.273438 2.234375 -10.328125 C 2.097656 -11.378906 1.992188 -12.59375 1.921875 -13.96875 C 1.859375 -15.351562 1.828125 -17.023438 1.828125 -18.984375 L 1.828125 -27.734375 C 1.828125 -29.703125 1.859375 -31.375 1.921875 -32.75 C 1.992188 -34.125 2.097656 -35.335938 2.234375 -36.390625 C 2.378906 -37.441406 2.566406 -38.375 2.796875 -39.1875 C 3.035156 -40.007812 3.34375 -40.816406 3.71875 -41.609375 C 4.550781 -43.378906 5.804688 -44.671875 7.484375 -45.484375 C 9.171875 -46.304688 11.414062 -46.71875 14.21875 -46.71875 L 19.828125 -46.71875 C 22.628906 -46.71875 24.867188 -46.304688 26.546875 -45.484375 C 28.222656 -44.671875 29.484375 -43.378906 30.328125 -41.609375 C 30.703125 -40.816406 31.003906 -40.007812 31.234375 -39.1875 C 31.472656 -38.375 31.660156 -37.441406 31.796875 -36.390625 C 31.941406 -35.335938 32.046875 -34.125 32.109375 -32.75 C 32.179688 -31.375 32.21875 -29.703125 32.21875 -27.734375 L 32.21875 -18.984375 C 32.21875 -17.023438 32.179688 -15.351562 32.109375 -13.96875 C 32.046875 -12.59375 31.941406 -11.378906 31.796875 -10.328125 C 31.660156 -9.273438 31.472656 -8.335938 31.234375 -7.515625 C 31.003906 -6.703125 30.703125 -5.898438 30.328125 -5.109375 C 29.484375 -3.335938 28.222656 -2.039062 26.546875 -1.21875 C 24.867188 -0.40625 22.628906 0 19.828125 0 Z M 19.6875 -33.34375 C 19.6875 -34.46875 19.441406 -35.367188 18.953125 -36.046875 C 18.460938 -36.722656 17.816406 -37.0625 17.015625 -37.0625 C 16.222656 -37.0625 15.582031 -36.722656 15.09375 -36.046875 C 14.601562 -35.367188 14.359375 -34.46875 14.359375 -33.34375 L 14.359375 -13.234375 C 14.359375 -12.066406 14.601562 -11.15625 15.09375 -10.5 C 15.582031 -9.851562 16.222656 -9.53125 17.015625 -9.53125 C 17.816406 -9.53125 18.460938 -9.851562 18.953125 -10.5 C 19.441406 -11.15625 19.6875 -12.066406 19.6875 -13.234375 Z M 19.6875 -33.34375 "/></g></g></g><g fill="#000000" fill-opacity="1"><g transform="translate(216.491078, 235.982322)"><g><path d="M 2.234375 -34.890625 C 2.234375 -37.691406 2.175781 -39.988281 2.0625 -41.78125 C 1.945312 -43.582031 1.773438 -45.226562 1.546875 -46.71875 L 15.90625 -46.71875 C 15.53125 -44.851562 15.25 -43 15.0625 -41.15625 C 14.875 -39.3125 14.78125 -37.335938 14.78125 -35.234375 L 14.78125 -10.15625 L 23.1875 -10.640625 L 20.9375 0 L 2.234375 0 Z M 2.234375 -34.890625 "/></g></g></g><g fill="#000000" fill-opacity="1"><g transform="translate(239.255129, 235.982322)"><g><path d="M 2.234375 -37.1875 C 2.234375 -39.25 2.410156 -40.894531 2.765625 -42.125 C 3.117188 -43.363281 3.664062 -44.3125 4.40625 -44.96875 C 5.15625 -45.625 6.3125 -46.078125 7.875 -46.328125 C 9.445312 -46.585938 11.769531 -46.71875 14.84375 -46.71875 L 19.96875 -46.71875 C 23.050781 -46.71875 25.375 -46.585938 26.9375 -46.328125 C 28.5 -46.078125 29.65625 -45.625 30.40625 -44.96875 C 31.144531 -44.3125 31.691406 -43.363281 32.046875 -42.125 C 32.398438 -40.894531 32.578125 -39.25 32.578125 -37.1875 L 32.578125 0 L 20.03125 0 L 20.03125 -9.875 L 14.78125 -9.875 L 14.78125 0 L 2.234375 0 Z M 20.03125 -20.25 L 20.03125 -32.578125 C 20.03125 -35.472656 19.144531 -36.921875 17.375 -36.921875 C 15.644531 -36.921875 14.78125 -35.472656 14.78125 -32.578125 L 14.78125 -20.25 Z M 20.03125 -20.25 "/></g></g></g><g fill="#000000" fill-opacity="1"><g transform="translate(274.136638, 235.982322)"><g><path d="M 2.234375 -46.71875 L 14.78125 -46.71875 L 14.78125 -28.4375 L 20.109375 -28.4375 L 20.109375 -46.71875 L 32.640625 -46.71875 L 32.640625 0 L 20.109375 0 L 20.109375 -18.28125 L 14.78125 -18.28125 L 14.78125 0 L 2.234375 0 Z M 2.234375 -46.71875 "/></g></g></g></svg>